<svg width="94" height="94" viewBox="0 0 94 94" fill="none" xmlns="http://www.w3.org/2000/svg">
<g clip-path="url(#clip0_168_366)">
<rect width="94" height="94" rx="20" fill="#A1D56A"/>
<path d="M23.756 73C9.61273 73 -1.81064 67.0417 -1.81064 67.0417C-3.8052 51.6944 -8.22951 21 -9.97022 21H101V67.0417C101 67.0417 92.2964 73 76.5212 73C60.7461 73 51.4986 67.0417 51.4986 67.0417C51.4986 67.0417 37.8993 73 23.756 73Z" fill="#528930"/>
<path d="M23.756 28C9.61273 28 -1.81064 22.0417 -1.81064 22.0417C-3.8052 6.69444 -8.22951 -24 -9.97022 -24H101V22.0417C101 22.0417 92.2964 28 76.5212 28C60.7461 28 51.4986 22.0417 51.4986 22.0417C51.4986 22.0417 37.8993 28 23.756 28Z" fill="#679F48"/>
</g>
<defs>
<clipPath id="clip0_168_366">
<rect width="94" height="94" rx="20" fill="white"/>
</clipPath>
</defs>
</svg>
