<svg width="25" height="25" viewBox="0 0 25 25" fill="none" xmlns="http://www.w3.org/2000/svg">
<path d="M24.7494 1.56098L19.4131 10.878C18.1298 9.46341 16.5623 8.52845 14.7104 8.07317L18.4385 1.56098C18.6821 1.13821 19.0395 0.772358 19.5106 0.463415C19.9817 0.154472 20.4365 0 20.8751 0H24.0184C24.457 0 24.7494 0.154472 24.8956 0.463415C25.0418 0.772358 24.9931 1.13821 24.7494 1.56098ZM20.2903 17.1951C20.2903 18.6098 19.9451 19.9146 19.2548 21.1098C18.5644 22.3049 17.6181 23.252 16.4161 23.9512C15.214 24.6504 13.9063 25 12.4931 25C11.0798 25 9.77214 24.6504 8.57006 23.9512C7.36798 23.252 6.42175 22.3049 5.73137 21.1098C5.04099 19.9146 4.6958 18.6098 4.6958 17.1951C4.6958 15.7805 5.04099 14.4715 5.73137 13.2683C6.42175 12.065 7.36798 11.1138 8.57006 10.4146C9.77214 9.71545 11.0798 9.36585 12.4931 9.36585C13.9063 9.36585 15.214 9.71545 16.4161 10.4146C17.6181 11.1138 18.5644 12.065 19.2548 13.2683C19.9451 14.4715 20.2903 15.7805 20.2903 17.1951ZM14.8322 20.3171H14.0525V15.6098C14.0525 14.748 13.7479 14.0122 13.1388 13.4024C12.5296 12.7927 11.7946 12.4878 10.9336 12.4878V12.5122V12.4878C10.7062 12.4878 10.5194 12.565 10.3732 12.7195C10.227 12.874 10.1539 13.061 10.1539 13.2805C10.1539 13.5 10.227 13.687 10.3732 13.8415C10.5194 13.9959 10.7062 14.0732 10.9336 14.0732V14.0488C11.3722 14.065 11.7418 14.2236 12.0423 14.5244C12.3428 14.8252 12.4931 15.187 12.4931 15.6098V20.3171H11.7133C11.5022 20.3171 11.3194 20.3943 11.1651 20.5488C11.0108 20.7033 10.9336 20.8862 10.9336 21.0976C10.9336 21.3089 11.0108 21.4919 11.1651 21.6463C11.3194 21.8008 11.5022 21.878 11.7133 21.878H14.8322C15.0434 21.878 15.2262 21.8008 15.3805 21.6463C15.5348 21.4919 15.612 21.3089 15.612 21.0976C15.612 20.8862 15.5348 20.7033 15.3805 20.5488C15.2262 20.3943 15.0434 20.3171 14.8322 20.3171ZM0.236736 1.56098C-0.00692825 1.13821 -0.0556612 0.772358 0.0905376 0.463415C0.236736 0.154472 0.529134 0 0.96773 0H4.111C4.5496 0 5.00444 0.154472 5.47552 0.463415C5.94661 0.772358 6.30398 1.13821 6.54765 1.56098L10.2757 8.07317C8.42386 8.52845 6.85629 9.46341 5.57299 10.878L0.236736 1.56098Z" fill="black"/>
</svg>
