<svg width="25" height="25" viewBox="0 0 25 25" fill="none" xmlns="http://www.w3.org/2000/svg">
<path d="M24.7494 1.56098L19.4132 10.878C18.1298 9.46341 16.5623 8.53658 14.7104 8.09756L18.4385 1.56098C18.6822 1.13821 19.0395 0.772358 19.5106 0.463415C19.9817 0.154472 20.4365 0 20.8751 0H24.0184C24.457 0 24.7494 0.154472 24.8956 0.463415C25.0418 0.772358 24.9931 1.13821 24.7494 1.56098ZM20.2903 17.1951C20.2903 18.6098 19.9452 19.9146 19.2548 21.1098C18.5644 22.3049 17.6182 23.252 16.4161 23.9512C15.214 24.6504 13.9063 25 12.4931 25C11.0798 25 9.77215 24.6504 8.57007 23.9512C7.36799 23.252 6.42176 22.3049 5.73138 21.1098C5.04099 19.9146 4.6958 18.6098 4.6958 17.1951C4.6958 15.7805 5.04099 14.4715 5.73138 13.2683C6.42176 12.065 7.36799 11.1138 8.57007 10.4146C9.77215 9.71545 11.0798 9.36585 12.4931 9.36585C13.9063 9.36585 15.214 9.71545 16.4161 10.4146C17.6182 11.1138 18.5644 12.065 19.2548 13.2683C19.9452 14.4715 20.2903 15.7805 20.2903 17.1951ZM15.612 14.8537C15.612 14.0407 15.3277 13.4431 14.7592 13.061C14.1906 12.6789 13.4352 12.4878 12.4931 12.4878H10.1539C9.94271 12.4878 9.75997 12.565 9.60565 12.7195C9.45132 12.874 9.37416 13.061 9.37416 13.2805C9.37416 13.5 9.45132 13.687 9.60565 13.8415C9.75997 13.9959 9.94271 14.0732 10.1539 14.0732H12.4931C12.5418 14.0732 12.6149 14.065 12.7124 14.0488C12.956 14.0488 13.1347 14.0528 13.2484 14.061C13.3621 14.0691 13.4962 14.0976 13.6505 14.1463C13.8048 14.1951 13.9104 14.2764 13.9672 14.3902C14.0241 14.5041 14.0525 14.6545 14.0525 14.8415C14.0525 15.0285 14.0241 15.1789 13.9672 15.2927C13.9104 15.4065 13.8048 15.4878 13.6505 15.5366C13.4962 15.5854 13.3621 15.6138 13.2484 15.622C13.1347 15.6301 12.956 15.6341 12.7124 15.6341H11.7133C11.5022 15.6341 11.3194 15.7073 11.1651 15.8537C11.0108 16 10.9336 16.1829 10.9336 16.4024C10.9336 16.622 11.0108 16.8089 11.1651 16.9634C11.3194 17.1179 11.5022 17.1951 11.7133 17.1951H12.4931C12.9317 17.1951 13.3012 17.3455 13.6017 17.6463C13.9023 17.9472 14.0525 18.313 14.0525 18.7439C14.0525 19.1748 13.9023 19.5447 13.6017 19.8537C13.3012 20.1626 12.9317 20.3171 12.4931 20.3171H10.1539C9.94271 20.3171 9.75997 20.3943 9.60565 20.5488C9.45132 20.7033 9.37416 20.8862 9.37416 21.0976C9.37416 21.3089 9.45132 21.4919 9.60565 21.6463C9.75997 21.8008 9.94271 21.878 10.1539 21.878H12.4931C13.354 21.878 14.0891 21.5732 14.6982 20.9634C15.3074 20.3537 15.612 19.6179 15.612 18.7561C15.612 17.813 15.2546 17.0325 14.5399 16.4146C14.6373 16.3333 14.7795 16.2195 14.9663 16.0732C15.1531 15.9268 15.279 15.8211 15.3439 15.7561C15.4089 15.6911 15.4698 15.5772 15.5267 15.4146C15.5836 15.252 15.612 15.065 15.612 14.8537ZM0.236736 1.56098C-0.00692826 1.13821 -0.0556612 0.772358 0.0905376 0.463415C0.236736 0.154472 0.529134 0 0.967731 0H4.11101C4.5496 0 5.00444 0.154472 5.47553 0.463415C5.94661 0.772358 6.30399 1.13821 6.54765 1.56098L10.2757 8.09756C8.42387 8.53658 6.85629 9.46341 5.57299 10.878L0.236736 1.56098Z" fill="black"/>
</svg>
