<svg width="25" height="25" viewBox="0 0 25 25" fill="none" xmlns="http://www.w3.org/2000/svg">
<path d="M24.7494 1.56098L19.4131 10.878C18.1298 9.46341 16.5623 8.53658 14.7104 8.09756L18.4385 1.56098C18.6822 1.13821 19.0395 0.772358 19.5106 0.463415C19.9817 0.154472 20.4365 0 20.8751 0H24.0184C24.457 0 24.7494 0.154472 24.8956 0.463415C25.0418 0.772358 24.9931 1.13821 24.7494 1.56098ZM20.2903 17.1951C20.2903 18.6098 19.9452 19.9146 19.2548 21.1098C18.5644 22.3049 17.6182 23.252 16.4161 23.9512C15.214 24.6504 13.9063 25 12.4931 25C11.0798 25 9.77215 24.6504 8.57007 23.9512C7.36799 23.252 6.42176 22.3049 5.73138 21.1098C5.04099 19.9146 4.6958 18.6098 4.6958 17.1951C4.6958 15.7805 5.04099 14.4715 5.73138 13.2683C6.42176 12.065 7.36799 11.1138 8.57007 10.4146C9.77215 9.71545 11.0798 9.36585 12.4931 9.36585C13.9063 9.36585 15.214 9.71545 16.4161 10.4146C17.6182 11.1138 18.5644 12.065 19.2548 13.2683C19.9452 14.4715 20.2903 15.7805 20.2903 17.1951ZM12.4931 18.7561C13.354 18.7561 14.0891 18.4512 14.6982 17.8415C15.3074 17.2317 15.612 16.4959 15.612 15.6341C15.612 14.7724 15.3074 14.0325 14.6982 13.4146C14.0891 12.7967 13.354 12.4878 12.4931 12.4878C11.6321 12.4878 10.8971 12.7967 10.2879 13.4146C9.67874 14.0325 9.37416 14.7724 9.37416 15.6341C9.37416 15.8455 9.44726 16.0285 9.59346 16.1829C9.73966 16.3374 9.92241 16.4146 10.1417 16.4146C10.361 16.4146 10.5478 16.3374 10.7021 16.1829C10.8565 16.0285 10.9336 15.8455 10.9336 15.6341C10.9336 15.1951 11.0839 14.8252 11.3844 14.5244C11.6849 14.2236 12.0504 14.0732 12.4809 14.0732C12.9114 14.0732 13.2809 14.2236 13.5896 14.5244C13.8982 14.8252 14.0525 15.1911 14.0525 15.622C14.0525 16.0528 13.8982 16.4228 13.5896 16.7317C13.2809 17.0406 12.9154 17.1951 12.4931 17.1951C11.6321 17.1951 10.8971 17.5 10.2879 18.1098C9.67874 18.7195 9.37416 19.4553 9.37416 20.3171V21.0976C9.37416 21.3089 9.44726 21.4919 9.59346 21.6463C9.73966 21.8008 9.92647 21.878 10.1539 21.878H14.8323C15.0434 21.878 15.2262 21.8008 15.3805 21.6463C15.5348 21.4919 15.612 21.3089 15.612 21.0976C15.612 20.8862 15.5348 20.7033 15.3805 20.5488C15.2262 20.3943 15.0434 20.3171 14.8323 20.3171H10.9336C10.9336 19.878 11.0839 19.5081 11.3844 19.2073C11.6849 18.9065 12.0545 18.7561 12.4931 18.7561ZM0.236736 1.56098C-0.00692826 1.13821 -0.0556612 0.772358 0.0905376 0.463415C0.236736 0.154472 0.529134 0 0.967731 0H4.11101C4.5496 0 5.00444 0.154472 5.47553 0.463415C5.94661 0.772358 6.30399 1.13821 6.54765 1.56098L10.2757 8.09756C8.42387 8.53658 6.85629 9.46341 5.57299 10.878L0.236736 1.56098Z" fill="black"/>
</svg>
